<svg width="603" height="673" viewBox="0 0 603 673" fill="none" xmlns="http://www.w3.org/2000/svg">
<path d="M392.327 537.238C400.515 526.528 405.794 514.343 410.936 502.075C420.736 478.683 426.843 454.464 426.305 428.977C425.892 408.783 416.753 394.627 399.674 389.251C392.713 387.059 385.338 387.969 378.446 385.722C375.745 384.84 371.995 384.675 372.202 380.774C372.409 376.832 375.29 374.516 379.191 374.888C395.056 376.404 411.018 375.66 426.912 377.231C436.161 378.141 445.548 378.472 454.852 378.734C462.668 378.954 470.166 380.36 477.582 382.18C486.17 384.289 489.037 389.637 487.769 401.436C486.211 415.979 485.219 430.604 481.097 444.801C475.432 464.334 467.768 482.97 457.774 500.669C446.871 520.008 435.361 538.975 423.286 557.584C421.811 559.858 421.729 561.195 424.472 563.401C451.02 584.89 478.837 604.671 507.963 622.411C530.693 636.25 555.16 646.575 581.515 651.62C586.161 652.502 590.93 651.689 595.741 652.819C599.338 653.66 602.288 654.377 601.999 658.181C601.654 662.757 596.885 663.97 593.797 663.791C558.771 661.71 523.704 663.708 488.679 662.744C451.323 661.696 417.359 650.489 387.392 627.801C381.286 623.183 374.601 619.268 368.756 614.347C364.359 610.639 361.395 611.728 357.494 614.843C338.927 629.661 320.07 644.025 298.057 653.632C277.229 662.716 255.795 668.974 233.078 671.221C208.804 673.619 184.475 673.261 160.311 672.034C139.332 670.959 118.724 665.693 98.9165 657.878C75.2628 648.56 54.7381 634.72 38.0041 615.753C20.9806 596.455 8.7264 574.208 3.11623 548.955C-3.45884 519.388 0.73156 490.882 12.3516 462.914C23.9442 435.028 41.5742 411.706 63.1189 391.112C77.2339 377.617 93.5406 366.797 109.709 355.949C113.459 353.44 112.894 351.882 111.281 349.112C104.913 338.139 97.924 327.539 92.493 316.002C84.4982 299.006 80.3767 281.266 79.7978 262.478C79.1499 241.443 81.7965 221.249 92.3276 202.668C99.3024 190.345 107.752 179.276 118.407 169.724C133.294 156.381 149.89 146.112 168.706 139.55C184.682 133.981 200.892 129.502 217.902 127.972C227.633 127.089 237.31 125.311 247.124 125.545C274.982 126.207 302.344 130.508 329.002 138.489C348.438 144.32 346.564 149.489 345.516 166.498C345.282 170.261 344.592 174.135 344.579 177.981C344.455 202.516 341.725 226.804 337.866 251.009C337.066 255.999 333.4 256.799 330.229 257.198C326.632 257.653 328.341 253.863 327.982 251.947C325.763 240.023 325.391 227.879 321.89 216.08C315.577 194.825 302.688 178.959 283.528 168.773C256.635 154.479 228.13 150.054 198.99 161.136C174.013 170.62 158.23 189.049 153.157 215.46C146.003 252.705 158.809 285.236 178.796 315.602C191.919 335.548 207.812 353.33 223.402 371.373C252.5 405.02 283.887 436.434 315.563 467.573C329.071 480.847 343.531 493.156 357.577 505.879C369.073 516.286 380.61 526.652 392.341 537.225L392.327 537.238ZM335.826 588.805C329.168 582.533 322.8 576.33 316.197 570.362C302.992 558.411 289.497 546.791 276.471 534.661C264.492 523.509 251.935 513.047 238.137 504.363C209.893 486.595 179.347 478.297 145.535 481.991C128.842 483.811 112.425 486.251 96.2699 490.662C83.7676 494.08 81.5208 498.353 84.9117 511.49C85.1322 512.358 85.3804 513.226 85.5044 514.108C89.3502 542.27 101.218 566.557 120.006 587.826C143.274 614.182 172.951 627.525 207.219 630.874C225.138 632.625 243.03 630.199 260.702 626.133C288.587 619.723 312.958 606.49 335.812 588.778L335.826 588.805Z" fill="#79ADEA"/>
<path d="M341.337 100.307C336.939 101.12 334.458 99.4382 332.377 97.9357C315.836 85.9435 296.855 81.3533 277.075 78.3208C262.408 76.074 247.783 73.8547 232.979 74.6955C207.437 76.1567 182.046 78.9962 158.337 89.6376C151.39 92.7528 145.932 98.8041 137.951 100.045C135.91 100.362 133.581 101.506 132.327 99.4933C130.879 97.1638 133.567 95.8956 134.863 94.5586C150.026 78.9824 166.098 64.3712 182.225 49.8151C199.814 33.9219 217.678 18.3871 235.887 3.22444C241.318 -1.29678 244.144 -1.02109 248.996 3.80338C261.802 16.5262 275.269 28.5874 288.46 40.9105C307.317 58.5405 326.174 76.1842 345.031 93.8418C346.175 94.917 348.049 96.1713 347.071 97.7703C345.568 100.224 342.343 99.5898 341.364 100.307H341.337Z" fill="#79ADEA"/>
<path d="M240.628 521.014C256.245 542.449 250.842 572.747 229.793 588.502C215.802 598.978 200.116 604.423 182.982 603.334C157.702 601.735 128.631 584.256 122.897 553.959C120.815 542.959 123.806 532.331 128.962 522.448C129.568 521.276 130.492 519.236 132.518 519.815C134.227 520.298 133.414 522.117 133.828 523.316C140.761 543.634 152.988 559.031 175.125 562.891C202.955 567.743 229.021 556.054 238.477 526.721C239.084 524.819 240.504 523.247 240.614 521.014H240.628Z" fill="#79ADEA"/>
</svg>
